<svg xmlns="http://www.w3.org/2000/svg" xml:space="preserve" width="64mm" height="64mm" version="1.1" style="shape-rendering:geometricPrecision; text-rendering:geometricPrecision; image-rendering:optimizeQuality; fill-rule:evenodd; clip-rule:evenodd"
viewBox="0 0 6400 6400"
 xmlns:xlink="http://www.w3.org/1999/xlink">
 <defs>
  <style type="text/css">
   <![CDATA[
    .fil0 {fill:black}
   ]]>
  </style>
 </defs>
 <g id="Слой_x0020_1">
  <metadata id="CorelCorpID_0Corel-Layer"/>
  <path class="fil0" d="M3200 0c1767,0 3200,1433 3200,3200 0,1767 -1433,3200 -3200,3200 -1767,0 -3200,-1433 -3200,-3200 0,-1767 1433,-3200 3200,-3200zm10 1795c-326,128 -263,453 -300,584 -31,107 -150,180 -277,192 -58,-134 -38,-76 -39,-152 0,-77 -49,-147 -104,-200 -141,-137 -349,-134 -488,-111 -4,-68 -9,-139 -95,-196 -64,-43 -172,-45 -262,-53 279,-38 440,-342 550,-560 37,-74 110,-91 171,-37 79,70 38,73 177,118 165,52 71,71 144,135 44,39 287,52 219,-290 -17,-89 -52,-132 -136,-157 -116,-33 -412,-70 -528,-49 -208,37 -684,299 -810,402 -98,79 -201,166 -273,281 -9,15 -29,34 -47,53 -49,56 -26,91 -20,160 8,107 10,211 62,282 140,192 5,448 570,642 -21,141 -96,226 -60,391 44,195 229,298 409,345 1,21 4,40 4,62 -116,-11 -135,-49 -215,-119 -38,190 -1,155 78,285 90,149 156,714 355,892 -2,-277 -173,-806 17,-1028 -67,914 158,1197 398,1582 67,129 173,354 262,437l588 -1041c35,-73 35,-104 -17,-181 119,105 140,187 373,273 272,101 542,72 824,163 132,42 146,-12 221,-72 581,-459 337,-681 572,-1072 47,-77 110,-114 111,-223 0,-83 -142,-631 -472,-382 -46,35 -67,83 -71,141 -3,39 -13,113 31,128 45,16 50,-6 94,40 22,22 58,92 68,125 -13,47 -63,100 -151,155 -165,103 -245,160 -399,300l-88 80c-8,-273 -198,-374 -442,-275 38,-170 15,-255 -78,-360 -55,-62 -138,-123 -241,-165 -235,-97 -379,84 -497,-92 -33,-50 -56,-112 -69,-173 205,11 249,216 401,4 201,-283 328,-709 150,-1033 -121,-222 -437,-323 -670,-231zm2089 1994c-75,83 -551,550 -583,543 -24,21 -108,-35 -38,-38 -7,37 542,-428 621,-505zm-2084 -582c122,335 563,242 560,244 -100,40 -439,96 -540,-117 -34,-72 -25,-142 -20,-127zm-494 1120c36,-9 281,196 588,196 141,0 303,-77 21,39 -70,29 -200,32 -297,6 -92,-25 -314,-240 -312,-241z"/>
 </g>
</svg>
